<svg width="16" height="30" viewBox="0 0 16 30" fill="none" xmlns="http://www.w3.org/2000/svg">
<path d="M14.5757 15.3745C15.0764 14.8734 15.3577 14.194 15.3577 13.4856C15.3577 12.7771 15.0764 12.0977 14.5757 11.5966L9.26468 6.28422C9.12513 6.14471 8.93588 6.06635 8.73856 6.06635C8.54123 6.06635 8.35198 6.14471 8.21243 6.28422C8.14329 6.35328 8.08843 6.4353 8.05101 6.52558C8.01359 6.61585 7.99432 6.71262 7.99432 6.81035C7.99432 6.90807 8.01359 7.00484 8.05101 7.09512C8.08843 7.1854 8.14329 7.26741 8.21243 7.33648L13.5232 12.6478C13.6333 12.7576 13.7206 12.8881 13.7802 13.0318C13.8398 13.1755 13.8705 13.3295 13.8705 13.485C13.8705 13.6405 13.8398 13.7946 13.7802 13.9382C13.7206 14.0819 13.6333 14.2124 13.5232 14.3223L10.8108 17.0346C10.5534 17.2905 10.3648 17.6075 10.2628 17.956C10.1608 18.3044 10.1487 18.673 10.2275 19.0274L11.947 26.9265C11.9566 26.9703 11.9517 27.016 11.9331 27.0568C11.9145 27.0976 11.8831 27.1312 11.8438 27.1527C11.8045 27.1741 11.7592 27.1823 11.7149 27.1759C11.6705 27.1695 11.6295 27.1488 11.5978 27.1171L9.29607 24.8156C9.15652 24.6761 8.96727 24.5978 8.76995 24.5978C8.57262 24.5978 8.38337 24.6761 8.24382 24.8156C8.1043 24.9553 8.02592 25.1445 8.02592 25.3419C8.02592 25.5393 8.1043 25.7286 8.24382 25.8682L12.0609 29.6853C12.2606 29.8856 12.5314 29.9987 12.8142 30C12.9735 29.9991 13.1306 29.9629 13.2742 29.8938C13.4177 29.8248 13.5441 29.7246 13.6442 29.6007C13.7442 29.4767 13.8155 29.3321 13.8527 29.1772C13.89 29.0223 13.8923 28.8611 13.8596 28.7052L11.6825 18.7091C11.6577 18.5986 11.6613 18.4836 11.6929 18.3749C11.7244 18.2661 11.783 18.1671 11.8631 18.0871L14.5757 15.3745Z" fill="#737373"/>
<path d="M14.5757 15.3745C15.0764 14.8734 15.3577 14.194 15.3577 13.4856C15.3577 12.7771 15.0764 12.0977 14.5757 11.5966L9.26468 6.28422C9.12513 6.14471 8.93588 6.06635 8.73856 6.06635C8.54123 6.06635 8.35198 6.14471 8.21243 6.28422C8.14329 6.35328 8.08843 6.4353 8.05101 6.52558C8.01359 6.61585 7.99432 6.71262 7.99432 6.81035C7.99432 6.90807 8.01359 7.00484 8.05101 7.09512C8.08843 7.1854 8.14329 7.26741 8.21243 7.33648L13.5232 12.6478C13.6333 12.7576 13.7206 12.8881 13.7802 13.0318C13.8398 13.1755 13.8705 13.3295 13.8705 13.485C13.8705 13.6405 13.8398 13.7946 13.7802 13.9382C13.7206 14.0819 13.6333 14.2124 13.5232 14.3223L10.8108 17.0346C10.5534 17.2905 10.3648 17.6075 10.2628 17.956C10.1608 18.3044 10.1487 18.673 10.2275 19.0274L11.947 26.9265C11.9566 26.9703 11.9517 27.016 11.9331 27.0568C11.9145 27.0976 11.8831 27.1312 11.8438 27.1527C11.8045 27.1741 11.7592 27.1823 11.7149 27.1759C11.6705 27.1695 11.6295 27.1488 11.5978 27.1171L9.29607 24.8156C9.15652 24.6761 8.96727 24.5978 8.76995 24.5978C8.57262 24.5978 8.38337 24.6761 8.24382 24.8156C8.1043 24.9553 8.02592 25.1445 8.02592 25.3419C8.02592 25.5393 8.1043 25.7286 8.24382 25.8682L12.0609 29.6853C12.2606 29.8856 12.5314 29.9987 12.8142 30C12.9735 29.9991 13.1306 29.9629 13.2742 29.8938C13.4177 29.8248 13.5441 29.7246 13.6442 29.6007C13.7442 29.4767 13.8155 29.3321 13.8527 29.1772C13.89 29.0223 13.8923 28.8611 13.8596 28.7052L11.6825 18.7091C11.6577 18.5986 11.6613 18.4836 11.6929 18.3749C11.7244 18.2661 11.783 18.1671 11.8631 18.0871L14.5757 15.3745Z" fill="url(#paint0_linear)"/>
<path d="M1.50549 16.7282C1.47086 16.5391 1.48269 16.3444 1.53999 16.1609C1.59728 15.9774 1.69832 15.8106 1.83439 15.6748L4.54698 12.9625C4.80449 12.7073 4.99308 12.391 5.0951 12.0431C5.19712 11.6952 5.20924 11.3271 5.13033 10.9733L3.40972 3.07412C3.40008 3.03032 3.4049 2.98457 3.42347 2.94374C3.44204 2.90292 3.47336 2.86922 3.51272 2.84771C3.55208 2.8262 3.59735 2.81804 3.64174 2.82445C3.68613 2.83087 3.72724 2.85151 3.7589 2.88328L6.02786 5.15252C6.16742 5.29203 6.35667 5.3704 6.55399 5.3704C6.75132 5.3704 6.94056 5.29203 7.08012 5.15252C7.21962 5.01297 7.29799 4.82372 7.29799 4.62639C7.29799 4.42907 7.21962 4.23982 7.08012 4.10027L3.29555 0.311534C3.13218 0.148726 2.9205 0.0431756 2.69216 0.0106652C2.46382 -0.0218452 2.23109 0.0204314 2.02877 0.131173C1.82645 0.241915 1.66541 0.415172 1.56974 0.625037C1.47407 0.834901 1.4489 1.0701 1.498 1.29545L3.67529 11.2916C3.68662 11.3389 3.69268 11.3874 3.69334 11.4361C3.69295 11.5242 3.67518 11.6115 3.64106 11.6928C3.60693 11.7741 3.55711 11.8479 3.49445 11.91L0.855474 14.5489C0.392959 15.0115 0.0715601 15.6106 0.0126694 16.2598C-0.0257178 16.6521 0.0233874 17.0479 0.156446 17.4189C0.289504 17.7899 0.503202 18.1267 0.782139 18.4052L6.06009 23.6831C6.19969 23.8226 6.38898 23.901 6.58635 23.901C6.78372 23.901 6.97302 23.8226 7.11262 23.6831C7.25214 23.5435 7.33052 23.3542 7.33052 23.1569C7.33052 22.9595 7.25214 22.7702 7.11262 22.6306L1.85773 17.3762C1.67939 17.1987 1.54772 16.9751 1.50549 16.7282Z" fill="#737373"/>
<path d="M1.50549 16.7282C1.47086 16.5391 1.48269 16.3444 1.53999 16.1609C1.59728 15.9774 1.69832 15.8106 1.83439 15.6748L4.54698 12.9625C4.80449 12.7073 4.99308 12.391 5.0951 12.0431C5.19712 11.6952 5.20924 11.3271 5.13033 10.9733L3.40972 3.07412C3.40008 3.03032 3.4049 2.98457 3.42347 2.94374C3.44204 2.90292 3.47336 2.86922 3.51272 2.84771C3.55208 2.8262 3.59735 2.81804 3.64174 2.82445C3.68613 2.83087 3.72724 2.85151 3.7589 2.88328L6.02786 5.15252C6.16742 5.29203 6.35667 5.3704 6.55399 5.3704C6.75132 5.3704 6.94056 5.29203 7.08012 5.15252C7.21962 5.01297 7.29799 4.82372 7.29799 4.62639C7.29799 4.42907 7.21962 4.23982 7.08012 4.10027L3.29555 0.311534C3.13218 0.148726 2.9205 0.0431756 2.69216 0.0106652C2.46382 -0.0218452 2.23109 0.0204314 2.02877 0.131173C1.82645 0.241915 1.66541 0.415172 1.56974 0.625037C1.47407 0.834901 1.4489 1.0701 1.498 1.29545L3.67529 11.2916C3.68662 11.3389 3.69268 11.3874 3.69334 11.4361C3.69295 11.5242 3.67518 11.6115 3.64106 11.6928C3.60693 11.7741 3.55711 11.8479 3.49445 11.91L0.855474 14.5489C0.392959 15.0115 0.0715601 15.6106 0.0126694 16.2598C-0.0257178 16.6521 0.0233874 17.0479 0.156446 17.4189C0.289504 17.7899 0.503202 18.1267 0.782139 18.4052L6.06009 23.6831C6.19969 23.8226 6.38898 23.901 6.58635 23.901C6.78372 23.901 6.97302 23.8226 7.11262 23.6831C7.25214 23.5435 7.33052 23.3542 7.33052 23.1569C7.33052 22.9595 7.25214 22.7702 7.11262 22.6306L1.85773 17.3762C1.67939 17.1987 1.54772 16.9751 1.50549 16.7282Z" fill="url(#paint1_linear)"/>
<defs>
<linearGradient id="paint0_linear" x1="11.676" y1="6.06635" x2="11.676" y2="30" gradientUnits="userSpaceOnUse">
<stop stop-color="#9461E5"/>
<stop offset="1" stop-color="#F399C0"/>
</linearGradient>
<linearGradient id="paint1_linear" x1="3.66526" y1="0" x2="3.66526" y2="23.901" gradientUnits="userSpaceOnUse">
<stop stop-color="#9461E5"/>
<stop offset="1" stop-color="#F399C0"/>
</linearGradient>
</defs>
</svg>
