<svg viewBox="0 0 159 57" fill="none" xmlns="http://www.w3.org/2000/svg">
<path d="M8.37429 25.1001L2.56629 30.9081L8.37429 36.7166V42.5319L0 34.1571V27.6597L8.37429 19.2921V25.1001Z" fill="white"/>
<path d="M37.0543 30.9696L42.8623 25.1611L37.0543 19.353V13.5378L45.4285 21.9126V28.41L37.0543 36.7776V30.9696Z" fill="white"/>
<path d="M35.5924 28.7138C36.5275 27.7779 37.0528 26.509 37.0528 25.186C37.0528 23.8629 36.5275 22.594 35.5924 21.6581L25.6743 11.7366C25.4137 11.4761 25.0603 11.3297 24.6918 11.3297C24.3233 11.3297 23.9699 11.4761 23.7092 11.7366C23.5801 11.8656 23.4777 12.0188 23.4078 12.1874C23.3379 12.356 23.3019 12.5367 23.3019 12.7192C23.3019 12.9017 23.3379 13.0825 23.4078 13.2511C23.4777 13.4197 23.5801 13.5728 23.7092 13.7018L33.6268 23.6213C33.8324 23.8265 33.9956 24.0702 34.1068 24.3385C34.2181 24.6068 34.2754 24.8945 34.2754 25.1849C34.2754 25.4754 34.2181 25.7631 34.1068 26.0314C33.9956 26.2997 33.8324 26.5434 33.6268 26.7486L28.5617 31.8142C28.0808 32.2922 27.7288 32.8842 27.5383 33.535C27.3478 34.1857 27.3251 34.8741 27.4723 35.536L30.6834 50.2886C30.7013 50.3704 30.6921 50.4557 30.6574 50.5319C30.6227 50.608 30.5642 50.6708 30.4907 50.7109C30.4173 50.751 30.3328 50.7662 30.25 50.7542C30.1671 50.7423 30.0904 50.7038 30.0313 50.6445L25.7329 46.3463C25.4723 46.0857 25.1189 45.9393 24.7504 45.9393C24.3819 45.9393 24.0285 46.0857 23.7679 46.3463C23.5073 46.607 23.3609 46.9605 23.3609 47.3291C23.3609 47.6977 23.5073 48.0513 23.7679 48.312L30.8961 55.4408C31.269 55.815 31.7748 56.0263 32.303 56.0286C32.6004 56.027 32.8938 55.9593 33.1619 55.8303C33.43 55.7013 33.666 55.5143 33.8528 55.2829C34.0397 55.0514 34.1727 54.7812 34.2423 54.492C34.3119 54.2027 34.3162 53.9016 34.2551 53.6105L30.1896 34.9415C30.1433 34.7351 30.1499 34.5204 30.2088 34.3173C30.2678 34.1142 30.3772 33.9294 30.5267 33.7799L35.5924 28.7138Z" fill="#9461E5"/>
<path d="M35.5924 28.7138C36.5275 27.7779 37.0528 26.509 37.0528 25.186C37.0528 23.8629 36.5275 22.594 35.5924 21.6581L25.6743 11.7366C25.4137 11.4761 25.0603 11.3297 24.6918 11.3297C24.3233 11.3297 23.9699 11.4761 23.7092 11.7366C23.5801 11.8656 23.4777 12.0188 23.4078 12.1874C23.3379 12.356 23.3019 12.5367 23.3019 12.7192C23.3019 12.9017 23.3379 13.0825 23.4078 13.2511C23.4777 13.4197 23.5801 13.5728 23.7092 13.7018L33.6268 23.6213C33.8324 23.8265 33.9956 24.0702 34.1068 24.3385C34.2181 24.6068 34.2754 24.8945 34.2754 25.1849C34.2754 25.4754 34.2181 25.7631 34.1068 26.0314C33.9956 26.2997 33.8324 26.5434 33.6268 26.7486L28.5617 31.8142C28.0808 32.2922 27.7288 32.8842 27.5383 33.535C27.3478 34.1857 27.3251 34.8741 27.4723 35.536L30.6834 50.2886C30.7013 50.3704 30.6921 50.4557 30.6574 50.5319C30.6227 50.608 30.5642 50.6708 30.4907 50.7109C30.4173 50.751 30.3328 50.7662 30.25 50.7542C30.1671 50.7423 30.0904 50.7038 30.0313 50.6445L25.7329 46.3463C25.4723 46.0857 25.1189 45.9393 24.7504 45.9393C24.3819 45.9393 24.0285 46.0857 23.7679 46.3463C23.5073 46.607 23.3609 46.9605 23.3609 47.3291C23.3609 47.6977 23.5073 48.0513 23.7679 48.312L30.8961 55.4408C31.269 55.815 31.7748 56.0263 32.303 56.0286C32.6004 56.027 32.8938 55.9593 33.1619 55.8303C33.43 55.7013 33.666 55.5143 33.8528 55.2829C34.0397 55.0514 34.1727 54.7812 34.2423 54.492C34.3119 54.2027 34.3162 53.9016 34.2551 53.6105L30.1896 34.9415C30.1433 34.7351 30.1499 34.5204 30.2088 34.3173C30.2678 34.1142 30.3772 33.9294 30.5267 33.7799L35.5924 28.7138Z" fill="url(#paint0_linear)"/>
<path d="M11.1844 31.2419C11.1197 30.8887 11.1418 30.5252 11.2488 30.1825C11.3558 29.8398 11.5445 29.5282 11.7986 29.2746L16.8643 24.2091C17.3451 23.7325 17.6973 23.1417 17.8878 22.4919C18.0784 21.8422 18.101 21.1548 17.9536 20.4939L14.7405 5.74135C14.7224 5.65954 14.7315 5.5741 14.7661 5.49785C14.8008 5.4216 14.8593 5.35866 14.9328 5.31849C15.0063 5.27832 15.0908 5.26307 15.1737 5.27506C15.2566 5.28704 15.3334 5.32559 15.3925 5.38493L19.6297 9.623C19.8904 9.88355 20.2438 10.0299 20.6123 10.0299C20.9808 10.0299 21.3342 9.88355 21.5948 9.623C21.8553 9.36237 22.0017 9.00893 22.0017 8.6404C22.0017 8.27187 21.8553 7.91843 21.5948 7.65779L14.5273 0.581887C14.2222 0.277825 13.8269 0.0806966 13.4004 0.0199796C12.974 -0.0407375 12.5394 0.0382191 12.1616 0.245043C11.7838 0.451867 11.483 0.775444 11.3044 1.16739C11.1257 1.55934 11.0787 1.99859 11.1704 2.41947L15.2364 21.0885C15.2576 21.1769 15.2689 21.2674 15.2701 21.3582C15.2694 21.5229 15.2362 21.6859 15.1725 21.8377C15.1087 21.9896 15.0157 22.1274 14.8987 22.2433L9.97049 27.1719C9.10676 28.0357 8.50656 29.1548 8.39658 30.3672C8.3249 31.0998 8.4166 31.8391 8.66508 32.5319C8.91356 33.2248 9.31264 33.8539 9.83354 34.3739L19.6899 44.2311C19.9506 44.4916 20.3041 44.638 20.6727 44.638C21.0413 44.638 21.3948 44.4916 21.6555 44.2311C21.916 43.9703 22.0624 43.6168 22.0624 43.2482C22.0624 42.8796 21.916 42.5261 21.6555 42.2653L11.8422 32.4523C11.5091 32.1207 11.2632 31.7031 11.1844 31.2419Z" fill="#9461E5"/>
<path d="M11.1844 31.2419C11.1197 30.8887 11.1418 30.5252 11.2488 30.1825C11.3558 29.8398 11.5445 29.5282 11.7986 29.2746L16.8643 24.2091C17.3451 23.7325 17.6973 23.1417 17.8878 22.4919C18.0784 21.8422 18.101 21.1548 17.9536 20.4939L14.7405 5.74135C14.7224 5.65954 14.7315 5.5741 14.7661 5.49785C14.8008 5.4216 14.8593 5.35866 14.9328 5.31849C15.0063 5.27832 15.0908 5.26307 15.1737 5.27506C15.2566 5.28704 15.3334 5.32559 15.3925 5.38493L19.6297 9.623C19.8904 9.88355 20.2438 10.0299 20.6123 10.0299C20.9808 10.0299 21.3342 9.88355 21.5948 9.623C21.8553 9.36237 22.0017 9.00893 22.0017 8.6404C22.0017 8.27187 21.8553 7.91843 21.5948 7.65779L14.5273 0.581887C14.2222 0.277825 13.8269 0.0806966 13.4004 0.0199796C12.974 -0.0407375 12.5394 0.0382191 12.1616 0.245043C11.7838 0.451867 11.483 0.775444 11.3044 1.16739C11.1257 1.55934 11.0787 1.99859 11.1704 2.41947L15.2364 21.0885C15.2576 21.1769 15.2689 21.2674 15.2701 21.3582C15.2694 21.5229 15.2362 21.6859 15.1725 21.8377C15.1087 21.9896 15.0157 22.1274 14.8987 22.2433L9.97049 27.1719C9.10676 28.0357 8.50656 29.1548 8.39658 30.3672C8.3249 31.0998 8.4166 31.8391 8.66508 32.5319C8.91356 33.2248 9.31264 33.8539 9.83354 34.3739L19.6899 44.2311C19.9506 44.4916 20.3041 44.638 20.6727 44.638C21.0413 44.638 21.3948 44.4916 21.6555 44.2311C21.916 43.9703 22.0624 43.6168 22.0624 43.2482C22.0624 42.8796 21.916 42.5261 21.6555 42.2653L11.8422 32.4523C11.5091 32.1207 11.2632 31.7031 11.1844 31.2419Z" fill="url(#paint1_linear)"/>
<path d="M159 34.2331C159 34.6726 158.856 35.0365 158.567 35.325C158.279 35.5997 157.915 35.737 157.475 35.737C157.022 35.737 156.658 35.5997 156.383 35.325C156.108 35.0365 155.971 34.6726 155.971 34.2331C155.971 33.7798 156.108 33.4158 156.383 33.1411C156.658 32.8527 157.022 32.7085 157.475 32.7085C157.915 32.7085 158.279 32.8527 158.567 33.1411C158.856 33.4158 159 33.7798 159 34.2331Z" fill="#9461E5"/>
<path d="M71.0536 34.2413C69.7554 35.2385 68.1672 35.7371 66.289 35.7371C64.6317 35.7371 63.2645 35.2931 62.1872 34.4052C61.11 33.5172 60.5714 32.2195 60.5714 30.5119V25.8399C60.5714 24.1324 61.11 22.8346 62.1872 21.9466C63.2645 21.045 64.6179 20.5942 66.2476 20.5942C67.8772 20.5942 69.3549 21.0519 70.6808 21.9671C70.8327 22.0764 70.8534 22.213 70.7429 22.377L69.7693 23.7703C69.6726 23.9343 69.5276 23.9616 69.3342 23.8523C68.4365 23.2376 67.4076 22.9302 66.2476 22.9302C65.2532 22.9302 64.4729 23.1898 63.9067 23.7089C63.3542 24.228 63.078 24.9452 63.078 25.8604V30.4504C63.078 31.3793 63.3542 32.1034 63.9067 32.6225C64.4729 33.1416 65.2601 33.4011 66.2683 33.4011C67.5665 33.4011 68.7128 33.0459 69.7071 32.3356C69.8866 32.2126 70.0248 32.24 70.1214 32.4176L71.0951 33.8109C71.2056 33.9885 71.1917 34.132 71.0536 34.2413Z" fill="white"/>
<path d="M82.0076 31.5979C82.0076 32.8684 81.5795 33.8792 80.7233 34.6306C79.867 35.3683 78.7207 35.7371 77.2844 35.7371C75.8481 35.7371 74.7018 35.3683 73.8456 34.6306C72.9893 33.8792 72.5612 32.8684 72.5612 31.5979V28.8521C72.5612 27.568 72.9893 26.5435 73.8456 25.7785C74.7018 25.0135 75.8481 24.631 77.2844 24.631C78.7207 24.631 79.867 25.0135 80.7233 25.7785C81.5795 26.5435 82.0076 27.568 82.0076 28.8521V31.5979ZM74.985 31.5979C74.985 32.9367 75.7515 33.606 77.2844 33.606C78.0302 33.606 78.5964 33.4353 78.9831 33.0938C79.3836 32.7522 79.5839 32.2536 79.5839 31.5979V28.8521C79.5839 28.1827 79.3836 27.6705 78.9831 27.3153C78.5826 26.9465 78.0164 26.762 77.2844 26.762C76.5387 26.762 75.9655 26.9396 75.565 27.2948C75.1783 27.65 74.985 28.1691 74.985 28.8521V31.5979Z" fill="white"/>
<path d="M86.3342 35.4912H84.5526C84.3455 35.4912 84.2419 35.3887 84.2419 35.1838V25.758C84.2419 25.5804 84.3178 25.4643 84.4698 25.4096C85.547 24.8905 86.7554 24.631 88.095 24.631C88.7994 24.631 89.5037 24.6856 90.2081 24.7949C90.3876 24.8086 90.4774 24.911 90.4774 25.1023V26.5776C90.4774 26.7825 90.3669 26.8645 90.1459 26.8235C89.8006 26.7689 89.2413 26.7415 88.4679 26.7415C87.7083 26.7415 87.1007 26.8372 86.6449 27.0284V35.1838C86.6449 35.3887 86.5414 35.4912 86.3342 35.4912Z" fill="white"/>
<path d="M100.57 28.8316V30.9012C100.57 31.0925 100.466 31.1881 100.259 31.1881H93.9615V31.7618C93.9615 32.3766 94.1549 32.8479 94.5416 33.1757C94.9421 33.4899 95.4807 33.647 96.1574 33.647C97.1656 33.647 98.1392 33.3328 99.0783 32.7044C99.2441 32.5951 99.3822 32.6156 99.4927 32.7659L100.342 33.8929C100.48 34.0432 100.459 34.1866 100.28 34.3232C99.0783 35.2658 97.6766 35.7371 96.0745 35.7371C94.804 35.7371 93.7267 35.3956 92.8429 34.7125C91.9728 34.0159 91.5378 33.0255 91.5378 31.7413V28.8316C91.5378 27.4246 91.9797 26.3727 92.8636 25.676C93.7475 24.9793 94.8247 24.631 96.0953 24.631C97.352 24.631 98.4085 24.9793 99.2648 25.676C100.135 26.3727 100.57 27.4246 100.57 28.8316ZM98.229 28.8111C98.229 28.1008 98.0287 27.5748 97.6282 27.2333C97.2277 26.8918 96.7167 26.7211 96.0953 26.7211C94.6728 26.7211 93.9615 27.4177 93.9615 28.8111V29.3439H98.229V28.8111Z" fill="white"/>
<path d="M104.804 35.4912H103.023C102.816 35.4912 102.712 35.3887 102.712 35.1838V25.799C102.712 25.6214 102.788 25.4984 102.94 25.4301C104.183 24.8974 105.557 24.631 107.063 24.631C108.568 24.631 109.742 25.0066 110.584 25.758C111.44 26.4957 111.869 27.65 111.869 29.221V35.1838C111.869 35.3887 111.772 35.4912 111.579 35.4912H109.776C109.569 35.4912 109.466 35.3887 109.466 35.1838V29.2619C109.466 28.3467 109.265 27.7046 108.865 27.3358C108.464 26.9533 107.864 26.762 107.063 26.762C106.344 26.762 105.695 26.8372 105.115 26.9874V35.1838C105.115 35.3887 105.012 35.4912 104.804 35.4912Z" fill="white"/>
<path d="M116.706 31.7823C116.706 32.3424 116.844 32.7796 117.121 33.0938C117.411 33.408 117.818 33.565 118.343 33.565C118.467 33.565 118.75 33.5514 119.192 33.5241C119.413 33.5241 119.524 33.6197 119.524 33.8109V35.3683C119.524 35.5732 119.427 35.6825 119.234 35.6961C118.764 35.7234 118.398 35.7371 118.136 35.7371C116.989 35.7371 116.064 35.4297 115.36 34.815C114.655 34.1866 114.303 33.2304 114.303 31.9463V22.5819C114.303 22.3906 114.407 22.295 114.614 22.295H116.188C116.368 22.295 116.471 22.3838 116.499 22.5614L116.686 25.0203H118.902C119.109 25.0203 119.213 25.1159 119.213 25.3072V26.803C119.213 26.9943 119.109 27.0899 118.902 27.0899H116.706V31.7823Z" fill="white"/>
<path d="M123.377 35.4912H121.575C121.367 35.4912 121.264 35.3887 121.264 35.1838V25.1637C121.264 24.9725 121.367 24.8769 121.575 24.8769H123.377C123.57 24.8769 123.667 24.9725 123.667 25.1637V35.1838C123.667 35.3887 123.57 35.4912 123.377 35.4912ZM123.439 21.1475C123.701 21.3934 123.833 21.7076 123.833 22.0901C123.833 22.4726 123.701 22.7936 123.439 23.0532C123.19 23.3127 122.873 23.4425 122.486 23.4425C122.099 23.4425 121.775 23.3127 121.512 23.0532C121.25 22.7936 121.119 22.4726 121.119 22.0901C121.119 21.7076 121.25 21.3934 121.512 21.1475C121.775 20.8879 122.099 20.7582 122.486 20.7582C122.873 20.7582 123.19 20.8879 123.439 21.1475Z" fill="white"/>
<path d="M128.353 35.4912H126.571C126.364 35.4912 126.26 35.3887 126.26 35.1838V25.799C126.26 25.6214 126.336 25.4984 126.488 25.4301C127.731 24.8974 129.105 24.631 130.611 24.631C132.116 24.631 133.29 25.0066 134.132 25.758C134.989 26.4957 135.417 27.65 135.417 29.221V35.1838C135.417 35.3887 135.32 35.4912 135.127 35.4912H133.324C133.117 35.4912 133.014 35.3887 133.014 35.1838V29.2619C133.014 28.3467 132.813 27.7046 132.413 27.3358C132.012 26.9533 131.412 26.762 130.611 26.762C129.893 26.762 129.243 26.8372 128.663 26.9874V35.1838C128.663 35.3887 128.56 35.4912 128.353 35.4912Z" fill="white"/>
<path d="M148.206 35.4912H143.068C142.875 35.4912 142.778 35.3887 142.778 35.1838V21.1475C142.778 20.9426 142.875 20.8401 143.068 20.8401H148.206C149.959 20.8401 151.327 21.3046 152.307 22.2335C153.302 23.1488 153.799 24.4875 153.799 26.2498V30.1431C153.799 31.878 153.302 33.203 152.307 34.1183C151.327 35.0336 149.959 35.4912 148.206 35.4912ZM145.285 23.1146V33.1757H148.206C150.208 33.1757 151.209 32.1717 151.209 30.1635V26.2293C151.209 24.1528 150.208 23.1146 148.206 23.1146H145.285Z" fill="white"/>
<defs>
<linearGradient id="paint0_linear" x1="30.1774" y1="11.3297" x2="30.1774" y2="56.0286" gradientUnits="userSpaceOnUse">
<stop stop-color="#9461E5"/>
<stop offset="1" stop-color="#F399C0"/>
</linearGradient>
<linearGradient id="paint1_linear" x1="15.2177" y1="6.10352e-05" x2="15.2177" y2="44.638" gradientUnits="userSpaceOnUse">
<stop stop-color="#9461E5"/>
<stop offset="1" stop-color="#F399C0"/>
</linearGradient>
</defs>
</svg>
